<?xml version="1.0" encoding="utf-8"?>
<svg viewBox="0 0 828 1792" xmlns="http://www.w3.org/2000/svg">
  <rect x="-137.918" y="101.815" width="600.526" height="29.73" style="fill-opacity: 0.2; stroke-opacity: 0.19; stroke-width: 0px; stroke: rgb(0, 0, 0);" transform="matrix(0.707107, -0.707106, 0.707106, 0.707107, 160.135391, -15.11195)" rx="5.34" ry="5.34"/>
  <rect x="-137.918" y="101.815" width="600.526" height="29.73" style="fill-opacity: 0.2; stroke-opacity: 0.19; stroke-width: 0px; stroke: rgb(0, 0, 0);" transform="matrix(0.707107, -0.707106, 0.707106, 0.707107, 53.053185, 279.453827)" rx="5.34" ry="5.34"/>
  <rect x="-137.918" y="101.815" width="600.526" height="29.73" style="fill-opacity: 0.2; stroke-opacity: 0.19; stroke-width: 0px; stroke: rgb(0, 0, 0);" transform="matrix(0.707107, -0.707106, 0.707106, 0.707107, 329.301666, 221.61232)" rx="5.34" ry="5.34"/>
  <rect x="-137.918" y="101.815" width="600.526" height="29.73" style="fill-opacity: 0.2; stroke-opacity: 0.19; stroke-width: 0px; stroke: rgb(0, 0, 0);" transform="matrix(0.707107, -0.707106, 0.707106, 0.707107, 276.610168, 487.764709)" rx="5.34" ry="5.34"/>
  <rect x="-137.918" y="101.815" width="600.526" height="29.73" style="fill-opacity: 0.2; stroke-opacity: 0.19; stroke-width: 0px; stroke: rgb(0, 0, 0);" transform="matrix(0.707107, -0.707106, 0.707106, 0.707107, -212.841431, 746.610168)" rx="5.34" ry="5.34"/>
  <rect x="-137.918" y="101.815" width="600.526" height="29.73" style="fill-opacity: 0.2; stroke-opacity: 0.19; stroke-width: 0px; stroke: rgb(0, 0, 0);" transform="matrix(0.707107, -0.707106, 0.707106, 0.707107, -283.294769, 1021.762268)" rx="5.34" ry="5.34"/>
  <rect x="-137.918" y="101.815" width="600.526" height="29.73" style="fill-opacity: 0.2; stroke-opacity: 0.19; stroke-width: 0px; stroke: rgb(0, 0, 0);" transform="matrix(0.707107, -0.707106, 0.707106, 0.707107, 105.090218, 878.408203)" rx="5.34" ry="5.34"/>
  <rect x="-137.918" y="101.815" width="600.526" height="29.73" style="fill-opacity: 0.2; stroke-opacity: 0.19; stroke-width: 0px; stroke: rgb(0, 0, 0);" transform="matrix(0.707107, -0.707106, 0.707106, 0.707107, 628.839722, 355.887421)" rx="5.34" ry="5.34"/>
  <rect x="-137.918" y="101.815" width="600.526" height="29.73" style="fill-opacity: 0.2; stroke-opacity: 0.19; stroke-width: 0px; stroke: rgb(0, 0, 0);" transform="matrix(0.707107, -0.707106, 0.707106, 0.707107, -47.962757, 1282.193726)" rx="5.34" ry="5.34"/>
  <rect x="-137.918" y="101.815" width="600.526" height="29.73" style="fill-opacity: 0.2; stroke-opacity: 0.19; stroke-width: 0px; stroke: rgb(0, 0, 0);" transform="matrix(0.707107, -0.707106, 0.707106, 0.707107, 533.045532, 694.570984)" rx="5.34" ry="5.34"/>
  <rect x="-137.918" y="101.815" width="600.526" height="29.73" style="fill-opacity: 0.2; stroke-opacity: 0.19; stroke-width: 0px; stroke: rgb(0, 0, 0);" transform="matrix(0.707107, -0.707106, 0.707106, 0.707107, 354.638245, 1113.483765)" rx="5.34" ry="5.34"/>
  <rect x="-137.918" y="101.815" width="600.526" height="29.73" style="fill-opacity: 0.2; stroke-opacity: 0.19; stroke-width: 0px; stroke: rgb(0, 0, 0);" transform="matrix(0.707107, -0.707106, 0.707106, 0.707107, -158.786652, 1579.069946)" rx="5.34" ry="5.34"/>
  <rect x="-137.918" y="101.815" width="600.526" height="29.73" style="fill-opacity: 0.2; stroke-opacity: 0.19; stroke-width: 0px; stroke: rgb(0, 0, 0);" transform="matrix(0.707107, -0.707106, 0.707106, 0.707107, 116.714622, 1521.228394)" rx="5.34" ry="5.34"/>
  <rect x="-137.918" y="101.815" width="600.526" height="29.73" style="fill-opacity: 0.2; stroke-opacity: 0.19; stroke-width: 0px; stroke: rgb(0, 0, 0);" transform="matrix(0.707107, -0.707106, 0.707106, 0.707107, 64.770332, 1787.380859)" rx="5.34" ry="5.34"/>
  <rect x="-137.918" y="101.815" width="600.526" height="29.73" style="fill-opacity: 0.2; stroke-opacity: 0.19; stroke-width: 0px; stroke: rgb(0, 0, 0);" transform="matrix(0.707107, -0.707106, 0.707106, 0.707107, 416.999878, 1655.50354)" rx="5.34" ry="5.34"/>
  <rect x="-137.918" y="101.815" width="600.526" height="29.73" style="fill-opacity: 0.2; stroke-opacity: 0.19; stroke-width: 0px; stroke: rgb(0, 0, 0);" transform="matrix(0.707107, -0.707106, 0.707106, 0.707107, 563.283325, 1302.106079)" rx="5.34" ry="5.34"/>
  <rect x="-137.918" y="101.815" width="600.526" height="29.73" style="fill-opacity: 0.2; stroke-opacity: 0.19; stroke-width: 0px; stroke: rgb(0, 0, 0);" transform="matrix(0.707107, -0.707106, 0.707106, 0.707107, -355.450562, 498.457977)" rx="5.34" ry="5.34"/>
  <rect x="-137.918" y="101.815" width="600.526" height="29.73" style="fill-opacity: 0.2; stroke-opacity: 0.19; stroke-width: 0px; stroke: rgb(0, 0, 0);" transform="matrix(0.707107, -0.707106, 0.707106, 0.707107, 703.947754, 948.8125)" rx="5.34" ry="5.34"/>
  <rect x="-137.918" y="101.815" width="600.526" height="29.73" style="fill-opacity: 0.2; stroke-opacity: 0.19; stroke-width: 0px; stroke: rgb(0, 0, 0);" transform="matrix(0.707107, -0.707106, 0.707106, 0.707107, 727.513123, 1522.134399)" rx="5.34" ry="5.34"/>
</svg>